# xmcd CD database file
#
# Track frame offsets:
#	182
#	30175
#	56805
#	87845
#	108932
#	136112
#	152820
#	173935
#	204487
#	231457
#
# Disc length: 3324 seconds
#
# Revision: 0
# Processed by: cddbd v1.5.2PL0 Copyright (c) Steve Scherf et al.
# Submitted via: CDex 1.51
#
DISCID=7c0cfa0a
DTITLE=Various Artist - Leidse Jazzweek 1992
DYEAR=1992
DGENRE=Jazz
TTITLE0=4 p.m.
TTITLE1=I hear a rhapsody
TTITLE2=In a sentimental mood
TTITLE3=Caravan
TTITLE4=Blue in Green
TTITLE5=Star ship
TTITLE6=La pensée-amere
TTITLE7=Up in Giovanni´s room
TTITLE8=No Limits
TTITLE9=Georgia on my mind
EXTD=YEAR: 1992
EXTT0=
EXTT1=
EXTT2=
EXTT3=
EXTT4=
EXTT5=
EXTT6=
EXTT7=
EXTT8=
EXTT9=
PLAYORDER=
